<svg id="_1-notification" data-name="1-notification" xmlns="http://www.w3.org/2000/svg" viewBox="0 0 30.258 30">
  <defs>
    <style>
      .cls-1 {
        fill: #b4b4b4;
      }
    </style>
  </defs>
  <path id="Tracé_743" data-name="Tracé 743" class="cls-1" d="M29.541,20.922H26.448V15.285A11.227,11.227,0,0,0,15.923,4.094V1.8a.717.717,0,0,0-1.435,0V4.086a11.226,11.226,0,0,0-10.678,11.2v3.665a.717.717,0,1,0,1.435,0V15.285a9.789,9.789,0,0,1,9.778-9.778h.212a9.789,9.789,0,0,1,9.778,9.778v5.637H.717A.717.717,0,0,0,0,21.639V25.8a.717.717,0,0,0,.717.717H29.541a.717.717,0,0,0,.717-.717V21.639A.717.717,0,0,0,29.541,20.922Zm-.717,4.159H1.435V22.356H28.824Z" transform="translate(0 -1.081)"/>
  <path id="Tracé_744" data-name="Tracé 744" class="cls-1" d="M104.791,218.571a.718.718,0,0,0-.717.717,1.846,1.846,0,0,1-1.844,1.844h-.052a1.846,1.846,0,0,1-1.844-1.844.717.717,0,0,0-1.435,0,3.282,3.282,0,0,0,3.278,3.278h.052a3.282,3.282,0,0,0,3.278-3.278A.717.717,0,0,0,104.791,218.571Z" transform="translate(-87.075 -192.567)"/>
</svg>
