<svg id="_2-pin" data-name="2-pin" xmlns="http://www.w3.org/2000/svg" viewBox="0 0 19.42 30">
  <defs>
    <style>
      .cls-1 {
        fill: #b4b4b4;
      }
    </style>
  </defs>
  <path id="Tracé_745" data-name="Tracé 745" class="cls-1" d="M61.7,0a9.721,9.721,0,0,0-9.71,9.71c0,4.788,3.321,11.064,6.107,15.486a.61.61,0,1,0,1.033-.651C54.239,16.78,53.212,12.192,53.212,9.71a8.489,8.489,0,0,1,16.978,0c0,7.6-8.882,19.19-8.972,19.306a.611.611,0,0,0,.966.746c.377-.488,9.227-12.035,9.227-20.053A9.721,9.721,0,0,0,61.7,0Z" transform="translate(-51.991)"/>
  <path id="Tracé_746" data-name="Tracé 746" class="cls-1" d="M109.308,54.221a.61.61,0,0,0,0-1.221,4.317,4.317,0,1,0,3.44,1.709.611.611,0,0,0-.973.738,3.068,3.068,0,0,1,.628,1.87,3.1,3.1,0,1,1-3.1-3.1Z" transform="translate(-99.598 -47.607)"/>
</svg>
