<svg xmlns="http://www.w3.org/2000/svg" viewBox="0 0 25.639 30">
  <defs>
    <style>
      .cls-1 {
        fill: #b4b4b4;
      }
    </style>
  </defs>
  <path id="_3-home" data-name="3-home" class="cls-1" d="M42.923,14.879a.727.727,0,0,0-.726.726V28.547H34.4V20.423a.727.727,0,0,0-.726-.726h-5.69a.727.727,0,0,0-.726.726v6.442a.726.726,0,0,0,1.453,0V21.149h4.237v7.4H19.463V10.766L30.829,1.657l11.639,9.327a.726.726,0,1,0,.909-1.134L31.284.159a.726.726,0,0,0-.909,0L18.282,9.851a.726.726,0,0,0-.272.567V29.273a.726.726,0,0,0,.726.726H42.923a.726.726,0,0,0,.726-.726V15.6A.726.726,0,0,0,42.923,14.879Z" transform="translate(-18.01 0)"/>
</svg>
