<svg id="_4-settings" data-name="4-settings" xmlns="http://www.w3.org/2000/svg" viewBox="0 0 30 30">
  <defs>
    <style>
      .cls-1 {
        fill: #b4b4b4;
      }
    </style>
  </defs>
  <path id="Tracé_747" data-name="Tracé 747" class="cls-1" d="M24.436,52.153a.61.61,0,0,0-.863.863L24.759,54.2a1.5,1.5,0,0,1,0,2.128l-.03.03a1.505,1.505,0,0,1-2.128,0l-1.187-1.187a.61.61,0,0,0-.77-.076,10.1,10.1,0,0,1-3.627,1.5.61.61,0,0,0-.49.6v1.677a1.507,1.507,0,0,1-1.5,1.5H14.98a1.507,1.507,0,0,1-1.5-1.5V57.2a.61.61,0,0,0-.491-.6,10.1,10.1,0,0,1-3.627-1.5.611.611,0,0,0-.77.076L7.4,56.362a1.505,1.505,0,0,1-2.128,0l-.03-.03a1.5,1.5,0,0,1,0-2.128l1.187-1.187a.61.61,0,0,0,.077-.77A10.1,10.1,0,0,1,5,48.62a.61.61,0,0,0-.6-.49H2.727a1.507,1.507,0,0,1-1.5-1.5v-.043a1.507,1.507,0,0,1,1.5-1.5H4.4a.61.61,0,0,0,.6-.49,10.1,10.1,0,0,1,1.5-3.627.61.61,0,0,0-.077-.77L5.243,39a1.505,1.505,0,0,1,0-2.128l.03-.03a1.5,1.5,0,0,1,2.128,0l1.187,1.187a.611.611,0,0,0,.863-.863L8.264,35.982a2.725,2.725,0,0,0-3.855,0l-.03.03a2.726,2.726,0,0,0,0,3.855l.841.841a11.292,11.292,0,0,0-1.306,3.148H2.727A2.729,2.729,0,0,0,0,46.582v.043A2.729,2.729,0,0,0,2.727,49.35H3.914A11.285,11.285,0,0,0,5.22,52.5l-.841.841a2.726,2.726,0,0,0,0,3.855l.03.03a2.726,2.726,0,0,0,3.855,0l.841-.841a11.287,11.287,0,0,0,3.149,1.306v1.188A2.729,2.729,0,0,0,14.98,61.6h.043a2.729,2.729,0,0,0,2.726-2.726V57.69A11.285,11.285,0,0,0,20.9,56.384l.841.841a2.726,2.726,0,0,0,3.855,0l.03-.03a2.725,2.725,0,0,0,0-3.855Z" transform="translate(-0.001 -31.603)"/>
  <path id="Tracé_748" data-name="Tracé 748" class="cls-1" d="M135.443,12.253h-1.188A11.285,11.285,0,0,0,132.95,9.1l.841-.841a2.729,2.729,0,0,0,0-3.855l-.03-.03a2.725,2.725,0,0,0-3.855,0l-.841.841a11.287,11.287,0,0,0-3.148-1.306V2.726A2.729,2.729,0,0,0,123.191,0h-.043a2.729,2.729,0,0,0-2.726,2.726V4.4a.611.611,0,0,0,1.221,0V2.726a1.507,1.507,0,0,1,1.5-1.5h.043a1.507,1.507,0,0,1,1.5,1.5V4.4a.611.611,0,0,0,.49.6,10.1,10.1,0,0,1,3.627,1.5.611.611,0,0,0,.77-.077l1.187-1.187a1.5,1.5,0,0,1,2.128,0l.03.03a1.5,1.5,0,0,1,0,2.128l-1.187,1.187a.61.61,0,0,0-.077.77,10.1,10.1,0,0,1,1.5,3.627.611.611,0,0,0,.6.49h1.677a1.507,1.507,0,0,1,1.5,1.5v.043a1.507,1.507,0,0,1-1.5,1.5h-1.677a.61.61,0,1,0,0,1.221h1.677a2.729,2.729,0,0,0,2.726-2.726v-.043A2.729,2.729,0,0,0,135.443,12.253Z" transform="translate(-108.169 0)"/>
  <path id="Tracé_749" data-name="Tracé 749" class="cls-1" d="M116.341,118.64a2.273,2.273,0,0,1-1.447-.512.61.61,0,0,0-.769.949,3.521,3.521,0,1,0-1.305-2.736.611.611,0,1,0,1.221,0,2.3,2.3,0,1,1,2.3,2.3Z" transform="translate(-101.341 -101.34)"/>
</svg>
