<svg xmlns="http://www.w3.org/2000/svg" viewBox="0 0 30.01 30">
  <defs>
    <style>
      .cls-1 {
        fill: #b4b4b4;
      }
    </style>
  </defs>
  <path id="_5-user" data-name="5-user" class="cls-1" d="M25.617,4.442A15.006,15.006,0,0,0,.89,20.147a.611.611,0,1,0,1.149-.414A13.785,13.785,0,1,1,25,24.544l-.088.093c-.052.055-.1.11-.157.164a13.8,13.8,0,0,1-19.5,0l-.084-.087c0-.056,0-.112,0-.167q0-.184.007-.367c0-.041,0-.081.007-.122,0-.081.008-.162.014-.243,0-.048.009-.1.013-.144.006-.073.012-.146.02-.218.006-.051.013-.1.019-.153.009-.069.017-.138.027-.206.008-.052.017-.1.025-.156s.021-.133.034-.2.021-.1.031-.156.026-.13.041-.195.025-.1.037-.157.03-.127.047-.19.029-.1.043-.156.035-.125.053-.187.032-.1.049-.155.039-.122.06-.183.036-.1.054-.153.043-.121.066-.18.039-.1.06-.151.048-.118.072-.177.043-.1.065-.149.052-.116.079-.174.046-.1.07-.146.056-.114.085-.171l.075-.143q.045-.084.091-.168l.08-.14q.048-.083.1-.164l.084-.137q.051-.081.1-.161l.089-.133c.036-.053.073-.105.11-.157s.062-.087.093-.13.077-.1.116-.154l.1-.126c.04-.051.081-.1.122-.15l.1-.122c.042-.049.085-.1.128-.147l.1-.117c.044-.048.089-.1.134-.143l.109-.113c.046-.047.094-.093.141-.139l.111-.108c.049-.046.1-.091.148-.136l.114-.1c.051-.045.1-.089.156-.133l.115-.1c.054-.044.109-.087.165-.13l.115-.09c.058-.044.117-.087.177-.129l.112-.081c.065-.046.132-.09.2-.135l.1-.066c.087-.056.175-.111.264-.165l.041-.026q.155-.093.313-.18l.11-.058c.07-.037.14-.075.211-.111l.139-.067c.058-.028.116-.057.175-.084a5.944,5.944,0,0,0,8.233,0,9.946,9.946,0,0,1,4.89,4.977.611.611,0,1,0,1.118-.492,11.011,11.011,0,0,0-5.193-5.446,5.959,5.959,0,0,0-4.931-9.315.611.611,0,1,0,0,1.222,4.738,4.738,0,0,1,3.521,7.916h0a4.726,4.726,0,0,1-7.041,0h0a4.733,4.733,0,0,1,.184-6.544.611.611,0,0,0-.859-.868,5.953,5.953,0,0,0-.737,7.587l-.018.009-.141.073c-.072.037-.145.075-.216.114-.05.027-.1.056-.15.085-.067.038-.133.075-.2.114l-.152.093c-.063.039-.126.078-.188.118l-.151.1c-.06.04-.121.081-.18.122l-.149.106c-.058.042-.116.084-.173.127l-.146.111q-.084.065-.167.132l-.142.117-.161.137-.137.121q-.079.071-.156.143l-.132.125c-.051.049-.1.1-.151.149l-.127.128c-.049.051-.1.1-.146.155s-.081.087-.121.131-.1.109-.143.163-.076.088-.114.132-.094.116-.141.174-.07.086-.1.13c-.049.063-.1.127-.144.192-.03.04-.061.08-.09.121-.06.083-.119.168-.176.253l-.046.067q-.108.161-.21.326c-.024.038-.046.077-.069.115-.044.073-.088.146-.131.22-.026.046-.052.093-.077.14-.037.067-.075.134-.11.2-.026.05-.052.1-.077.152s-.066.131-.1.2-.049.106-.074.159-.06.131-.089.2-.047.109-.07.164-.055.132-.081.2-.043.112-.064.168-.05.133-.074.2-.04.114-.059.171-.045.135-.066.2-.036.116-.053.174-.04.137-.059.206-.032.117-.047.175-.035.14-.052.21-.028.117-.041.176-.03.143-.044.214-.024.117-.034.176-.025.147-.037.22c-.009.058-.019.116-.028.174-.011.076-.02.152-.03.229-.007.057-.015.113-.021.17-.009.08-.015.161-.022.241,0,.054-.01.107-.014.161-.007.09-.011.18-.015.271,0,.045-.005.089-.007.134q-.007.2-.008.408c0,.148,0,.287.011.441a.624.624,0,0,0,.014.1l0,.008a.6.6,0,0,0,.031.1l0,.009a.607.607,0,0,0,.047.087l.007.01a.622.622,0,0,0,.061.077l0,.006.081.086c.061.065.122.13.185.194a15.024,15.024,0,0,0,21.223,0c.064-.063.124-.128.185-.194l.081-.086a15,15,0,0,0-.266-20.944Z" transform="translate(0 -0.054)"/>
</svg>
